# xmcd
#
# Track frame offsets:
#	150
#	17186
#	33275
#	49442
#	64615
#	81448
#	97062
#	113073
#	128872
#	145317
#
# Disc length: 2164 seconds
#
# Revision: 2
# Processed by: cddbd v1.5.2PL0 Copyright (c) Steve Scherf et al.
# Submitted via: EasyCDDAExtractor 15.3.0.1
#
DISCID=8d08720a
DTITLE=Limi-T 21 - Como Nunca... Como Siempre
DYEAR=2004
DGENRE=Latin
TTITLE0=Me Acordare
TTITLE1=Ya No Digas Mas
TTITLE2=Nada Que Ver (Feat. Don Omar)
TTITLE3=Si Estuvieras (Reggaeton) (Feat. Don Omar)
TTITLE4=Amanecer (Bomba)
TTITLE5=Saca La Espina
TTITLE6=Bebiste, Comiste Y Del Amor Que...
TTITLE7=Estoy Enamorado De Ella (Salsa)
TTITLE8=Pero Dale
TTITLE9=Me Acordare (Version Acustica)
EXTD=
EXTT0=
EXTT1=
EXTT2=
EXTT3=
EXTT4=
EXTT5=
EXTT6=
EXTT7=
EXTT8=
EXTT9=
PLAYORDER=
